<?xml version="1.0" encoding="UTF-8"?>
<svg xmlns="http://www.w3.org/2000/svg" width="224" height="210" fill="none" viewBox="0 0 224 207">
  <rect transform="matrix(-1 0 0 1 224 205)" width="224" height="2" fill="url(#r)"/>
  <rect transform="matrix(-1 0 0 1 157 136)" width="92" height="2" fill="url(#a)"/>
  <rect transform="matrix(-1 0 0 1 204 68)" width="92" height="2" fill="url(#a)"/>
  <rect transform="matrix(-1 0 0 1 85 43)" width="46" height="2" fill="url(#h)"/>
  <rect x="65" y="102" width="92" height="34" fill="url(#g)"/>
  <rect x="112" y="34" width="92" height="34" fill="url(#f)"/>
  <path d="M39 9H85V43H39V9Z" fill="url(#e)"/>
  <path d="M20 171H204V205H20V171Z" fill="url(#d)"/>
  <path d="m47 2c0-1.1046 0.8954-2 2-2h26c1.1046 0 2 0.89543 2 2v7h-30v-7z" fill="url(#c)"/>
  <path d="m120 27c0-1.1046 0.895-2 2-2h26c1.105 0 2 0.8954 2 2v7h-30v-7z" fill="url(#b)"/>
  <path d="m73 95c0-1.1046 0.8954-2 2-2h26c1.105 0 2 0.8954 2 2v7h-30v-7z" fill="url(#q)"/>
  <path d="m120 162h30v9h-30v-9z" fill="url(#p)"/>
  <path d="m74 162h30v9h-30v-9z" fill="url(#o)"/>
  <path d="m28 162h30v9h-30v-9z" fill="url(#n)"/>
  <path d="m166 27c0-1.1046 0.895-2 2-2h26c1.105 0 2 0.8954 2 2v7h-30v-7z" fill="url(#m)"/>
  <path d="m119 95c0-1.1046 0.895-2 2-2h26c1.105 0 2 0.8954 2 2v7h-30v-7z" fill="url(#l)"/>
  <path d="m166 164c0-1.105 0.895-2 2-2h26c1.105 0 2 0.895 2 2v7h-30v-7z" fill="url(#k)"/>
  <circle cx="54" cy="68" r="4" fill="url(#j)"/>
  <circle cx="70" cy="68" r="4" fill="url(#i)"/>
  <rect transform="matrix(-1 0 0 1 184 124)" width="5" height="5" fill="#FFFFFA"/>
  <rect transform="matrix(-1 0 0 1 184 111)" width="5" height="5" fill="#FFFFFA"/>
  <defs>
    <linearGradient id="r" x1="6.029e-8" x2="224" y1="1.3332" y2="1.3334" gradientUnits="userSpaceOnUse">
      <stop stop-color="#FFFFFA" stop-opacity=".9" offset="0"/>
      <stop stop-color="#FFFFFA" stop-opacity="0" offset="1"/>
    </linearGradient>
    <linearGradient id="a" x1="2.4762e-8" x2="92" y1="1.3332" y2="1.3332" gradientUnits="userSpaceOnUse">
      <stop stop-color="#FFFFFA" stop-opacity=".9" offset="0"/>
      <stop stop-color="#FFFFFA" stop-opacity="0" offset="1"/>
    </linearGradient>
    <linearGradient id="h" x1="1.2381e-8" x2="46" y1="1.3332" y2="1.3332" gradientUnits="userSpaceOnUse">
      <stop stop-color="#FFFFFA" stop-opacity=".9" offset="0"/>
      <stop stop-color="#FFFFFA" stop-opacity="0" offset="1"/>
    </linearGradient>
    <linearGradient id="g" x1="157" x2="61.614" y1="102" y2="122.5" gradientUnits="userSpaceOnUse">
      <stop stop-color="#FFFFFA" stop-opacity=".7" offset="0"/>
      <stop stop-color="#FFFFFA" stop-opacity="0" offset="1"/>
    </linearGradient>
    <linearGradient id="f" x1="204" x2="108.61" y1="34" y2="54.5" gradientUnits="userSpaceOnUse">
      <stop stop-color="#FFFFFA" stop-opacity=".7" offset="0"/>
      <stop stop-color="#FFFFFA" stop-opacity="0" offset="1"/>
    </linearGradient>
    <linearGradient id="e" x1="85" x2="35.674" y1="9" y2="14.3" gradientUnits="userSpaceOnUse">
      <stop stop-color="#FFFFFA" stop-opacity=".7" offset="0"/>
      <stop stop-color="#FFFFFA" stop-opacity="0" offset="1"/>
    </linearGradient>
    <linearGradient id="d" x1="204" x2="20" y1="171" y2="238" gradientUnits="userSpaceOnUse">
      <stop stop-color="#FFFFFA" stop-opacity=".7" offset="0"/>
      <stop stop-color="#FFFFFA" stop-opacity="0" offset="1"/>
    </linearGradient>
    <linearGradient id="c" x1="77" x2="51" y1="-3.1748e-6" y2="14.5" gradientUnits="userSpaceOnUse">
      <stop stop-color="#FFFFFA" stop-opacity=".7" offset="0"/>
      <stop stop-color="#FFFFFA" stop-opacity="0" offset="1"/>
    </linearGradient>
    <linearGradient id="b" x1="150" x2="124" y1="25" y2="39.5" gradientUnits="userSpaceOnUse">
      <stop stop-color="#FFFFFA" stop-opacity=".7" offset="0"/>
      <stop stop-color="#FFFFFA" stop-opacity="0" offset="1"/>
    </linearGradient>
    <linearGradient id="q" x1="103" x2="77" y1="93" y2="107.5" gradientUnits="userSpaceOnUse">
      <stop stop-color="#FFFFFA" stop-opacity=".7" offset="0"/>
      <stop stop-color="#FFFFFA" stop-opacity="0" offset="1"/>
    </linearGradient>
    <linearGradient id="p" x1="150" x2="124" y1="162" y2="176.5" gradientUnits="userSpaceOnUse">
      <stop stop-color="#FFFFFA" stop-opacity=".7" offset="0"/>
      <stop stop-color="#FFFFFA" stop-opacity="0" offset="1"/>
    </linearGradient>
    <linearGradient id="o" x1="104" x2="78" y1="162" y2="176.5" gradientUnits="userSpaceOnUse">
      <stop stop-color="#FFFFFA" stop-opacity=".7" offset="0"/>
      <stop stop-color="#FFFFFA" stop-opacity="0" offset="1"/>
    </linearGradient>
    <linearGradient id="n" x1="58" x2="32" y1="162" y2="176.5" gradientUnits="userSpaceOnUse">
      <stop stop-color="#FFFFFA" stop-opacity=".7" offset="0"/>
      <stop stop-color="#FFFFFA" stop-opacity="0" offset="1"/>
    </linearGradient>
    <linearGradient id="m" x1="196" x2="170" y1="25" y2="39.5" gradientUnits="userSpaceOnUse">
      <stop stop-color="#FFFFFA" stop-opacity=".7" offset="0"/>
      <stop stop-color="#FFFFFA" stop-opacity="0" offset="1"/>
    </linearGradient>
    <linearGradient id="l" x1="149" x2="123" y1="93" y2="107.5" gradientUnits="userSpaceOnUse">
      <stop stop-color="#FFFFFA" stop-opacity=".7" offset="0"/>
      <stop stop-color="#FFFFFA" stop-opacity="0" offset="1"/>
    </linearGradient>
    <linearGradient id="k" x1="196" x2="170" y1="162" y2="176.5" gradientUnits="userSpaceOnUse">
      <stop stop-color="#FFFFFA" stop-opacity=".7" offset="0"/>
      <stop stop-color="#FFFFFA" stop-opacity="0" offset="1"/>
    </linearGradient>
    <linearGradient id="j" x1="58" x2="50" y1="68" y2="68" gradientUnits="userSpaceOnUse">
      <stop stop-color="#FFFFFA" stop-opacity=".6" offset="0"/>
      <stop stop-color="#FFFFFA" stop-opacity="0" offset="1"/>
    </linearGradient>
    <linearGradient id="i" x1="74" x2="66" y1="68" y2="68" gradientUnits="userSpaceOnUse">
      <stop stop-color="#FFFFFA" stop-opacity=".6" offset="0"/>
      <stop stop-color="#FFFFFA" stop-opacity="0" offset="1"/>
    </linearGradient>
  </defs>
</svg>