<svg xmlns="http://www.w3.org/2000/svg" width="224" height="210" fill="none" viewBox="0 0 224 209"><path d="M0 206h224v3H0v-3z" fill="url(#a)"/><path fill="url(#b)" d="M21 65h87v65H21z"/><path d="M108 0C79.281 0 56 23.281 56 52v1.5C56 28.923 75.923 9 100.5 9S145 28.923 145 53.5V206h15V52c0-28.719-23.281-52-52-52z" clip-rule="evenodd" fill="url(#c)" fill-rule="evenodd" opacity=".7"/><path d="M87 166.207V206h116v-96h-21.906L87 166.207Z" fill="url(#d)"/><path d="M56 52c0-28.719 23.281-52 52-52s52 23.281 52 52v154H56V52z" fill="url(#e)" opacity=".6"/><path fill="url(#f)" d="M181 110h22v96h-22z"/><path fill="url(#g)" d="M91 65h17v45H91z"/><path fill="#FFFFFA" opacity=".7" d="M151 189h17v3h-17z"/><path fill="url(#h)" d="M21 110h104v96H21z"/><path fill="url(#i)" d="M108 110h17v96h-17z"/><path fill="#FFFFFA" d="M37 139.46h-5v4.944h5zm0-13.84h-5v4.944h5z"/><defs><linearGradient id="a" x1="0" x2="224" y1="208" y2="208" gradientUnits="userSpaceOnUse"><stop stop-color="#FFFFFA" stop-opacity=".9" offset="0"/><stop stop-color="#FFFFFA" stop-opacity="0" offset="1"/></linearGradient><linearGradient id="b" x1="64.5" x2="64.5" y1="65" y2="130" gradientUnits="userSpaceOnUse"><stop stop-color="#FFFFFA" stop-opacity=".6" offset="0"/><stop stop-color="#FFFFFA" stop-opacity="0" offset="1"/></linearGradient><linearGradient id="c" x1="133" x2="61" y1="-11" y2="38" gradientUnits="userSpaceOnUse"><stop stop-color="#FFFFFA" offset="0"/><stop stop-color="#FFFFFA" stop-opacity="0" offset="1"/></linearGradient><linearGradient id="d" x1="145" x2="145" y1="110" y2="206" gradientUnits="userSpaceOnUse"><stop stop-color="#FFFFFA" stop-opacity=".6" offset="0"/><stop stop-color="#FFFFFA" stop-opacity="0" offset="1"/></linearGradient><linearGradient id="e" x1="7" x2="128" y1="103" y2="127" gradientUnits="userSpaceOnUse"><stop stop-color="#FFFFFA" offset="0"/><stop stop-color="#FFFFFA" stop-opacity="0" offset="1"/></linearGradient><linearGradient id="f" x1="192" x2="192" y1="110" y2="198.5" gradientUnits="userSpaceOnUse"><stop stop-color="#FFFFFA" stop-opacity=".6" offset="0"/><stop stop-color="#FFFFFA" stop-opacity="0" offset="1"/></linearGradient><linearGradient id="g" x1="99.5" x2="99.5" y1="65" y2="110" gradientUnits="userSpaceOnUse"><stop stop-color="#FFFFFA" stop-opacity=".6" offset="0"/><stop stop-color="#FFFFFA" stop-opacity="0" offset="1"/></linearGradient><linearGradient id="h" x1="50.5" x2="73" y1="110" y2="206" gradientUnits="userSpaceOnUse"><stop stop-color="#FFFFFA" stop-opacity=".6" offset="0"/><stop stop-color="#FFFFFA" stop-opacity="0" offset="1"/></linearGradient><linearGradient id="i" x1="116.5" x2="116.5" y1="110" y2="206" gradientUnits="userSpaceOnUse"><stop stop-color="#FFFFFA" stop-opacity=".6" offset="0"/><stop stop-color="#FFFFFA" stop-opacity="0" offset="1"/></linearGradient></defs></svg>