<svg xmlns="http://www.w3.org/2000/svg" viewBox="0 0 1023 1622" fill="none"><g clip-path="url(#a)"><mask id="b" style="mask-type:luminance" maskUnits="userSpaceOnUse" x="-1922" y="-228" width="3094" height="2419"><path d="m830.569-227.694-2751.759 485.21 340.83 1932.994 2751.77-485.21L830.569-227.694Z" fill="#fff"/></mask><g mask="url(#b)"><g opacity=".4" filter="url(#c)"><path fill-rule="evenodd" clip-rule="evenodd" d="M86.7 581.07c172.076 86.421 338.93 170.213 360.99 321.708 34.678 239.452-239.844 584.052-540.555 757.412-216.465 124.75-436.065 161.26-615.373 139.15-402.672-49.79-601.932-343.7-616.392-750.58-9.41-267.441 83.54-460.568 217.53-587.215 143.963-135.512 334.684-192.233 491.626-186.157 105.951 3.964 302.53 43.461 445.371 155.933C-96.803 488.91-4.319 535.358 86.7 581.07Zm-643.549 771.29c184.676-32.56 307.983-208.66 275.42-393.339-32.563-184.673-208.664-307.983-393.34-275.42-184.673 32.563-307.983 208.668-275.42 393.339 32.563 184.68 208.667 307.98 393.34 275.42Z" fill="url(#d)"/></g><g filter="url(#e)"><path fill-rule="evenodd" clip-rule="evenodd" d="M-499.323 1682.27c342.152-60.33 659.706-430.4 637.841-621.37-9.316-81.422-104.212-161.175-219.14-257.778-39.341-33.069-81.037-68.113-122.456-105.873-34.921-31.843-67.87-68.782-100.543-105.419-80.868-90.662-160.086-179.47-263.493-184.613-339.485-16.887-669.766 413.535-609.436 755.683 60.33 342.16 335.076 579.7 677.227 519.37Zm-46.037-261.09c215.03-37.92 358.606-242.97 320.69-457.999-37.915-215.03-242.965-358.61-457.995-320.695-215.03 37.916-358.605 242.969-320.695 457.994 37.917 215.04 242.969 358.61 458 320.7Z" fill="url(#f)"/></g><g filter="url(#g)"><path fill-rule="evenodd" clip-rule="evenodd" d="M-499.323 1682.27c342.152-60.33 659.706-430.4 637.841-621.37-9.316-81.422-104.212-161.175-219.14-257.778-39.341-33.069-81.037-68.113-122.456-105.873-34.921-31.843-67.87-68.782-100.543-105.419-80.868-90.662-160.086-179.47-263.493-184.613-339.485-16.887-669.766 413.535-609.436 755.683 60.33 342.16 335.076 579.7 677.227 519.37Zm-46.037-261.09c215.03-37.92 358.606-242.97 320.69-457.999-37.915-215.03-242.965-358.61-457.995-320.695-215.03 37.916-358.605 242.969-320.695 457.994 37.917 215.04 242.969 358.61 458 320.7Z" fill="url(#h)"/></g><g filter="url(#i)"><path d="M338.936 885.056c63.118 357.954-455.033 736.724-813.003 799.844-357.958 63.12-699.313-175.9-762.433-533.86-63.11-357.962 175.9-699.315 533.861-762.433 177.806-31.352 388.42 156.179 595.288 242.173 209.619 87.132 414.521 74.117 446.287 254.276Z" fill="url(#j)" fill-opacity=".97"/></g></g></g><defs><filter id="c" x="-1513" y="86" width="2151" height="1906" filterUnits="userSpaceOnUse" color-interpolation-filters="sRGB"><feFlood flood-opacity="0" result="BackgroundImageFix"/><feBlend in="SourceGraphic" in2="BackgroundImageFix" result="shape"/><feGaussianBlur stdDeviation="94" result="effect1_foregroundBlur"/></filter><filter id="e" x="-1232" y="357" width="1421" height="1382" filterUnits="userSpaceOnUse" color-interpolation-filters="sRGB"><feFlood flood-opacity="0" result="BackgroundImageFix"/><feColorMatrix in="SourceAlpha" values="0 0 0 0 0 0 0 0 0 0 0 0 0 0 0 0 0 0 127 0" result="hardAlpha"/><feOffset dy="5"/><feGaussianBlur stdDeviation="9.5"/><feComposite in2="hardAlpha" operator="out"/><feColorMatrix values="0 0 0 0 1 0 0 0 0 1 0 0 0 0 1 0 0 0 1 0"/><feBlend in2="BackgroundImageFix" result="effect1_dropShadow"/><feBlend in="SourceGraphic" in2="effect1_dropShadow" result="shape"/><feGaussianBlur stdDeviation="24.5" result="effect2_foregroundBlur"/></filter><filter id="g" x="-1227" y="360" width="1411" height="1372" filterUnits="userSpaceOnUse" color-interpolation-filters="sRGB"><feFlood flood-opacity="0" result="BackgroundImageFix"/><feColorMatrix in="SourceAlpha" values="0 0 0 0 0 0 0 0 0 0 0 0 0 0 0 0 0 0 127 0" result="hardAlpha"/><feOffset dy="-2"/><feGaussianBlur stdDeviation="22"/><feComposite in2="hardAlpha" operator="out"/><feColorMatrix values="0 0 0 0 0.019 0 0 0 0 0.63 0 0 0 0 0.67 0 0 0 0.9 0"/><feBlend in2="BackgroundImageFix" result="effect1_dropShadow"/><feBlend in="SourceGraphic" in2="effect1_dropShadow" result="shape"/><feGaussianBlur stdDeviation="7.5" result="effect2_foregroundBlur"/></filter><filter id="i" x="-1386" y="245" width="1870" height="1589" filterUnits="userSpaceOnUse" color-interpolation-filters="sRGB"><feFlood flood-opacity="0" result="BackgroundImageFix"/><feBlend in="SourceGraphic" in2="BackgroundImageFix" result="shape"/><feGaussianBlur stdDeviation="70" result="effect1_foregroundBlur"/></filter><radialGradient id="f" cx="0" cy="0" r="1" gradientUnits="userSpaceOnUse" gradientTransform="rotate(80 -884.616 203.09) scale(638 656)"><stop offset="0" stop-color="#D59F42"/><stop offset=".28" stop-color="#FEA568"/><stop offset=".52" stop-color="#E6AB4F"/><stop offset=".76" stop-color="#7E9485"/><stop offset="1" stop-color="#D59F42"/></radialGradient><radialGradient id="h" cx="0" cy="0" r="1" gradientUnits="userSpaceOnUse" gradientTransform="rotate(80 -884.616 203.09) scale(638 656)"><stop offset="0" stop-color="#D59F42"/><stop offset=".28" stop-color="#FDB07B"/><stop offset=".52" stop-color="#F3D3A1"/><stop offset=".76" stop-color="#7E9485"/><stop offset="1" stop-color="#D59F42"/></radialGradient><linearGradient id="d" x1="222" y1="1385" x2="-1325" y2="758" gradientUnits="userSpaceOnUse"><stop offset="0" stop-color="#2442AB"/><stop offset="1" stop-color="#33A8D4"/></linearGradient><linearGradient id="j" x1="393" y1="888" x2="-1234" y2="1162" gradientUnits="userSpaceOnUse"><stop offset="0" stop-color="#02226C"/><stop offset=".16" stop-color="#164787"/><stop offset=".3" stop-color="#347068"/><stop offset=".5" stop-color="#FDE14D"/></linearGradient><clipPath id="a"><path fill="#fff" d="M-1772 0h2794v1962h-2794z"/></clipPath></defs></svg>